<mxfile host="app.diagrams.net" agent="Mozilla/5.0 (Windows NT 10.0; Win64; x64) AppleWebKit/537.36 (KHTML, like Gecko) Chrome/140.0.0.0 Safari/537.36" version="28.2.3">
  <diagram name="Trang-1" id="L-YplVWb-fNjOiKq86wW">
    <mxGraphModel dx="1042" dy="596" grid="1" gridSize="10" guides="1" tooltips="1" connect="1" arrows="1" fold="1" page="1" pageScale="1" pageWidth="827" pageHeight="1169" math="0" shadow="0">
      <root>
        <mxCell id="0" />
        <mxCell id="1" parent="0" />
        <mxCell id="jA-qkMcG9kpiO2JGJWrB-4" value="" style="edgeStyle=orthogonalEdgeStyle;rounded=0;orthogonalLoop=1;jettySize=auto;html=1;" edge="1" parent="1" source="jA-qkMcG9kpiO2JGJWrB-1" target="jA-qkMcG9kpiO2JGJWrB-2">
          <mxGeometry relative="1" as="geometry" />
        </mxCell>
        <mxCell id="jA-qkMcG9kpiO2JGJWrB-1" value="start" style="ellipse;whiteSpace=wrap;html=1;" vertex="1" parent="1">
          <mxGeometry x="350" y="270" width="120" height="80" as="geometry" />
        </mxCell>
        <mxCell id="jA-qkMcG9kpiO2JGJWrB-6" value="" style="edgeStyle=orthogonalEdgeStyle;rounded=0;orthogonalLoop=1;jettySize=auto;html=1;" edge="1" parent="1" source="jA-qkMcG9kpiO2JGJWrB-2">
          <mxGeometry relative="1" as="geometry">
            <mxPoint x="410" y="500" as="targetPoint" />
          </mxGeometry>
        </mxCell>
        <mxCell id="jA-qkMcG9kpiO2JGJWrB-2" value="chọn món ăn từ menu" style="rounded=0;whiteSpace=wrap;html=1;" vertex="1" parent="1">
          <mxGeometry x="350" y="400" width="120" height="60" as="geometry" />
        </mxCell>
        <mxCell id="jA-qkMcG9kpiO2JGJWrB-9" value="" style="edgeStyle=orthogonalEdgeStyle;rounded=0;orthogonalLoop=1;jettySize=auto;html=1;" edge="1" parent="1" source="jA-qkMcG9kpiO2JGJWrB-7">
          <mxGeometry relative="1" as="geometry">
            <mxPoint x="410" y="620" as="targetPoint" />
          </mxGeometry>
        </mxCell>
        <mxCell id="jA-qkMcG9kpiO2JGJWrB-7" value="nhập thông tin,sdt và địa chỉ" style="shape=parallelogram;perimeter=parallelogramPerimeter;whiteSpace=wrap;html=1;fixedSize=1;" vertex="1" parent="1">
          <mxGeometry x="350" y="500" width="120" height="80" as="geometry" />
        </mxCell>
        <mxCell id="jA-qkMcG9kpiO2JGJWrB-13" value="" style="edgeStyle=orthogonalEdgeStyle;rounded=0;orthogonalLoop=1;jettySize=auto;html=1;" edge="1" parent="1" source="jA-qkMcG9kpiO2JGJWrB-10" target="jA-qkMcG9kpiO2JGJWrB-12">
          <mxGeometry relative="1" as="geometry" />
        </mxCell>
        <mxCell id="jA-qkMcG9kpiO2JGJWrB-10" value="thanh toán" style="rounded=0;whiteSpace=wrap;html=1;" vertex="1" parent="1">
          <mxGeometry x="350" y="620" width="120" height="60" as="geometry" />
        </mxCell>
        <mxCell id="jA-qkMcG9kpiO2JGJWrB-15" value="" style="edgeStyle=orthogonalEdgeStyle;rounded=0;orthogonalLoop=1;jettySize=auto;html=1;" edge="1" parent="1" source="jA-qkMcG9kpiO2JGJWrB-12" target="jA-qkMcG9kpiO2JGJWrB-14">
          <mxGeometry relative="1" as="geometry" />
        </mxCell>
        <mxCell id="jA-qkMcG9kpiO2JGJWrB-12" value="nhận món ăn tại địa chỉ cung cấp" style="shape=parallelogram;perimeter=parallelogramPerimeter;whiteSpace=wrap;html=1;fixedSize=1;rounded=0;" vertex="1" parent="1">
          <mxGeometry x="350" y="730" width="120" height="60" as="geometry" />
        </mxCell>
        <mxCell id="jA-qkMcG9kpiO2JGJWrB-14" value="end" style="ellipse;whiteSpace=wrap;html=1;" vertex="1" parent="1">
          <mxGeometry x="350" y="830" width="120" height="80" as="geometry" />
        </mxCell>
      </root>
    </mxGraphModel>
  </diagram>
</mxfile>
